<svg width="402" height="741" viewBox="0 0 402 741" fill="none" xmlns="http://www.w3.org/2000/svg">
<path d="M0 110V741H402V53C402 53 354.5 3.50001 299.5 0.500007C244.5 -2.49999 198.5 63.9999 140 88.5C81.5 113 0 110 0 110Z" fill="#F5F3ED" style="fill:#F5F3ED;fill:color(display-p3 0.9621 0.9540 0.9297);fill-opacity:1;"/>
<path d="M0 34.4999C-49.5 32.9999 0 741 0 741H402V87.9999C402 87.9999 242.5 182.5 183.5 178C124.5 173.5 49.5 35.9999 0 34.4999Z" fill="#EFEDE5" style="fill:#EFEDE5;fill:color(display-p3 0.9373 0.9294 0.8980);fill-opacity:1;"/>
<path d="M0 270.5V741H402V255C402 255 371.5 270.5 323 270.5C274.5 270.5 149 179.5 92 186.5C35 193.5 0 270.5 0 270.5Z" fill="#E6E4DB" style="fill:#E6E4DB;fill:color(display-p3 0.9036 0.8946 0.8584);fill-opacity:1;"/>
<path d="M-1.33514e-05 330.5C-23.5 341.5 -1.33514e-05 741 -1.33514e-05 741H402C402 741 419 307.5 402 308.5C385 309.5 330.5 341.5 294 341.5C257.5 341.5 229.5 320.872 182 314.5C134.5 308.128 23.5 319.5 -1.33514e-05 330.5Z" fill="#DBD8CC" style="fill:#DBD8CC;fill:color(display-p3 0.8600 0.8480 0.7998);fill-opacity:1;"/>
<path d="M7.62939e-06 321.5C-40 331.5 7.62939e-06 741 7.62939e-06 741H402C402 741 442 343 402 344C362 345 311.5 381 225.5 386C139.5 391 40 311.5 7.62939e-06 321.5Z" fill="#CECABB" style="fill:#CECABB;fill:color(display-p3 0.8070 0.7925 0.7344);fill-opacity:1;"/>
<path d="M0 402V741H402V402C402 402 294.5 367 182 369.5C69.5 372 0 402 0 402Z" fill="#C2BEAD" style="fill:#C2BEAD;fill:color(display-p3 0.7618 0.7454 0.6797);fill-opacity:1;"/>
</svg>
